<svg width="512" height="512" viewBox="0 0 512 512" fill="none" xmlns="http://www.w3.org/2000/svg">
<rect width="512" height="512" rx="256" fill="#40E0D0"/>
<path d="M264.25 126.5C286 126.5 305.125 130 321.625 137C338.125 143.75 352 153.25 363.25 165.5C374.5 177.5 382.875 191.5 388.375 207.5C394.125 223.25 397 240 397 257.75C397 281.75 392 303.75 382 323.75C372 343.5 357.125 359.375 337.375 371.375C317.625 383.125 293.25 389 264.25 389H149.5V126.5H264.25ZM262.375 350C284.125 350 301.75 345.875 315.25 337.625C329 329.125 339 318 345.25 304.25C351.75 290.25 355 274.75 355 257.75C355 241.25 351.75 226 345.25 212C339 198 329 186.75 315.25 178.25C301.5 169.75 283.875 165.5 262.375 165.5H190V350H262.375Z" fill="black"/>
</svg>
